<svg xmlns="http://www.w3.org/2000/svg" viewBox="0 0 100 100"><style>.border{fill:#bcbcbc}</style><path class="border" d="M94.4,24.53C90,14.73,80.69,8.4,70.69,8.4S54.22,12.77,50.4,17.52C46.59,12.77,40.11,8.4,30.12,8.4S10.82,14.73,6.41,24.53C1.83,34.73,3.8,46.1,11.7,54.93,30.63,76.1,47.35,91.11,47.52,91.26a4.32,4.32,0,0,0,5.77,0c.17-.15,16.89-15.15,35.82-36.32C97,46.1,99,34.73,94.4,24.53ZM82.66,49.2c-14,15.65-26.74,27.85-32.25,33-5.51-5.13-18.25-17.33-32.25-33-5.65-6.32-7.06-14-3.86-21.15,3-6.6,9.33-11,15.82-11,12.88,0,15.8,9.61,16.1,10.73A4.31,4.31,0,0,0,50.37,31h0a4.36,4.36,0,0,0,4.18-3.25C54.88,26.65,57.78,17,70.69,17c6.5,0,12.86,4.43,15.83,11C89.72,35.18,88.31,42.88,82.66,49.2Z"/><script type="text/javascript"><![CDATA[ var c=window.location.search.split("color=")[1];if(c=parseInt(c,16),!isNaN(c)){c=c.toString(16);for(var p=document.getElementsByTagName("path"),i=0,l=p.length;i<l;i++){var s=p[i].style;s.fill="#"+c}for(var r=document.getElementsByTagName("circle"),i=0,l=r.length;i<l;i++){var s=r[i].style;s.fill="#"+c}for(var d=document.getElementsByTagName("rect"),i=0,l=d.length;i<l;i++){var s=d[i].style;s.fill="#"+c}} ]]></script></svg>