<svg xmlns="http://www.w3.org/2000/svg" viewBox="0 0 100 100"><style>.border{fill:#bcbcbc}</style><path class="border" d="M50.34,18.75A17.58,17.58,0,1,0,67.7,36.33,17.49,17.49,0,0,0,50.34,18.75Zm0,27.55a10,10,0,1,1,9.73-10A9.86,9.86,0,0,1,50.34,46.3Z"/><path class="border" d="M74.81,8.63C68.55,3.06,59.86,0,50.34,0S32.13,3.06,25.87,8.63C18.34,15.31,14.37,25.48,14.37,38c0,27.32,31.53,59.34,32.88,60.69a4.37,4.37,0,0,0,6.19,0C54.78,97.37,86.31,65.35,86.31,38,86.31,25.48,82.34,15.31,74.81,8.63ZM50.34,89.28A168.16,168.16,0,0,1,38.1,74c-9.82-13.89-15-26.34-15-36C23.09,10.81,43.95,8.7,50.34,8.7,75.63,8.7,77.59,31.14,77.59,38,77.59,57.16,58.07,80.71,50.34,89.28Z"/><script type="text/javascript"><![CDATA[ var c=window.location.search.split("color=")[1];if(c=parseInt(c,16),!isNaN(c)){c=c.toString(16);for(var p=document.getElementsByTagName("path"),i=0,l=p.length;i<l;i++){var s=p[i].style;s.fill="#"+c}for(var r=document.getElementsByTagName("circle"),i=0,l=r.length;i<l;i++){var s=r[i].style;s.fill="#"+c}for(var d=document.getElementsByTagName("rect"),i=0,l=d.length;i<l;i++){var s=d[i].style;s.fill="#"+c}} ]]></script></svg>