<svg version="1.1" xmlns="http://www.w3.org/2000/svg" xmlns:xlink="http://www.w3.org/1999/xlink" x="0px" y="0px"
	 viewBox="0 0 100 100" style="enable-background:new 0 0 100 100;" xml:space="preserve">
<g id="Vrstva_81">
	<g>
		<g>
			<path d="M78.77,87.464c-0.384,0-0.768-0.146-1.061-0.439L57.203,66.519c-0.586-0.586-0.586-1.535,0-2.121l7.071-7.071
				c0.586-0.586,1.535-0.586,2.121,0l20.506,20.506c0.586,0.586,0.586,1.535,0,2.121l-7.071,7.071
				C79.537,87.317,79.153,87.464,78.77,87.464z M60.385,65.458L78.77,83.843l4.95-4.95L65.335,60.508L60.385,65.458z"/>
		</g>
		<g>
			<path d="M60.738,62.361c-0.384,0-0.768-0.146-1.061-0.44l-6.364-6.363c-0.586-0.586-0.586-1.535,0-2.121
				c0.586-0.586,1.535-0.586,2.121,0l6.364,6.363c0.586,0.586,0.586,1.535,0,2.121C61.506,62.215,61.122,62.361,60.738,62.361z"/>
		</g>
		<g>
			<path d="M36.814,60.869c-6.455,0-12.524-2.514-17.089-7.078c-9.422-9.423-9.422-24.755,0-34.177
				c4.565-4.564,10.633-7.078,17.088-7.078s12.523,2.514,17.088,7.079c4.564,4.563,7.078,10.632,7.079,17.087
				c0,6.455-2.514,12.523-7.078,17.089C49.338,58.355,43.27,60.869,36.814,60.869z M36.813,15.536
				c-5.653,0-10.969,2.202-14.967,6.199c-8.252,8.253-8.252,21.681,0,29.935c3.998,3.998,9.313,6.199,14.968,6.199
				c5.653,0,10.969-2.201,14.967-6.199c3.998-3.998,6.199-9.314,6.199-14.968s-2.202-10.968-6.2-14.966
				C47.782,17.738,42.467,15.536,36.813,15.536z"/>
		</g>
		<g>
			<path d="M36.438,46.076c-0.828,0-1.5-0.672-1.5-1.5v-17c0-0.828,0.672-1.5,1.5-1.5c0.828,0,1.5,0.672,1.5,1.5v17
				C37.938,45.404,37.267,46.076,36.438,46.076z"/>
		</g>
		<g>
			<path d="M44.938,37.576h-17c-0.828,0-1.5-0.672-1.5-1.5c0-0.828,0.672-1.5,1.5-1.5h17c0.828,0,1.5,0.672,1.5,1.5
				C46.438,36.904,45.767,37.576,44.938,37.576z"/>
		</g>
	</g>
</g>
<script  type="text/javascript">
    <![CDATA[
         var c=window.location.search.split('color=')[1]; c=parseInt(c,16); if(!isNaN(c)){c=c.toString(16);var p=document.getElementsByTagName('path');for(var i=0,l=p.length;i<l;i++){var s=p[i].style;s.fill='#'+c;} var p2=document.getElementsByTagName('polygon');for(var i=0,l=p2.length;i<l;i++){var s=p2[i].style;s.fill='#'+c;} var p3=document.getElementsByTagName('circle');for(var i=0,l=p3.length;i<l;i++){var s=p3[i].style;s.fill='#'+c;} }
        ]]>
</script>
</svg>
