<svg xmlns="http://www.w3.org/2000/svg" viewBox="0 0 100 100"><style>.border{fill:#bcbcbc}</style><path class="border" d="M100,21.65a4.34,4.34,0,0,0,0-.48c0-.12,0-.25-.05-.37s-.08-.27-.13-.41a4.2,4.2,0,0,0-.14-.4c0-.11-.12-.22-.18-.33a4.41,4.41,0,0,0-.25-.42l0-.08c-.06-.08-.13-.14-.2-.21a4.27,4.27,0,0,0-.31-.34c-.1-.1-.22-.18-.33-.27a3.19,3.19,0,0,0-.71-.45,3.79,3.79,0,0,0-.37-.17c-.14-.05-.28-.09-.42-.13l-.39-.1a4.59,4.59,0,0,0-.48,0l-.28,0H4.35l-.28,0a4.5,4.5,0,0,0-.48,0l-.4.1-.41.13a4.11,4.11,0,0,0-.37.17,4.1,4.1,0,0,0-.38.21,3.89,3.89,0,0,0-.34.24c-.11.09-.22.17-.33.27a4.23,4.23,0,0,0-.31.34c-.06.07-.14.13-.2.21l0,.08a4.55,4.55,0,0,0-.25.42c-.06.11-.13.22-.18.33s-.1.27-.14.4-.1.27-.13.41,0,.25-.05.37a4.28,4.28,0,0,0,0,.48s0,.06,0,.09v57a4.34,4.34,0,0,0,4.35,4.34h91.3A4.34,4.34,0,0,0,100,78.77v-57S100,21.68,100,21.65ZM82.5,26.08,50,50.15,17.5,26.08Zm8.8,48.36H8.7V30.36L47.41,59a4.36,4.36,0,0,0,5.18,0L91.3,30.36Z"/><script type="text/javascript"><![CDATA[ var c=window.location.search.split("color=")[1];if(c=parseInt(c,16),!isNaN(c)){c=c.toString(16);for(var p=document.getElementsByTagName("path"),i=0,l=p.length;i<l;i++){var s=p[i].style;s.fill="#"+c}for(var r=document.getElementsByTagName("circle"),i=0,l=r.length;i<l;i++){var s=r[i].style;s.fill="#"+c}for(var d=document.getElementsByTagName("rect"),i=0,l=d.length;i<l;i++){var s=d[i].style;s.fill="#"+c}} ]]></script></svg>