<svg version="1.1" xmlns="http://www.w3.org/2000/svg" xmlns:xlink="http://www.w3.org/1999/xlink" x="0px" y="0px"
	 viewBox="0 0 100 100" style="enable-background:new 0 0 100 100;" xml:space="preserve">
<g id="Vrstva_95">
	<g>
		<g>
			<path d="M62.167,25.25c-0.828,0-1.5-0.672-1.5-1.5c0-5.771-4.121-9.5-10.5-9.5s-10.5,3.729-10.5,9.5c0,0.828-0.672,1.5-1.5,1.5
				s-1.5-0.672-1.5-1.5c0-7.477,5.425-12.5,13.5-12.5s13.5,5.023,13.5,12.5C63.667,24.578,62.995,25.25,62.167,25.25z"/>
		</g>
		<g>
			<path d="M50.167,59.75c-7.822,0-13.5-5.468-13.5-13c0-0.828,0.672-1.5,1.5-1.5s1.5,0.672,1.5,1.5c0,5.888,4.317,10,10.5,10
				s10.5-4.112,10.5-10c0-0.828,0.672-1.5,1.5-1.5s1.5,0.672,1.5,1.5C63.667,54.282,57.989,59.75,50.167,59.75z"/>
		</g>
		<g>
			<path d="M38.167,48.25c-0.828,0-1.5-0.672-1.5-1.5v-23c0-0.828,0.672-1.5,1.5-1.5s1.5,0.672,1.5,1.5v23
				C39.667,47.578,38.995,48.25,38.167,48.25z"/>
		</g>
		<g>
			<path d="M62.167,48.25c-0.828,0-1.5-0.672-1.5-1.5v-23c0-0.828,0.672-1.5,1.5-1.5s1.5,0.672,1.5,1.5v23
				C63.667,47.578,62.995,48.25,62.167,48.25z"/>
		</g>
		<g>
			<path d="M50,71.249c-15.489,0-25.498-10.009-25.498-25.498c0-0.828,0.672-1.5,1.5-1.5c0.828,0,1.5,0.672,1.5,1.5
				c0,13.667,8.831,22.498,22.498,22.498c13.878,0,22.499-8.621,22.499-22.498c0-0.828,0.672-1.5,1.5-1.5c0.828,0,1.5,0.672,1.5,1.5
				C75.498,61.24,65.49,71.249,50,71.249z"/>
		</g>
		<g>
			<path d="M50.167,87.25c-0.828,0-1.5-0.672-1.5-1.5v-7c0-0.828,0.672-1.5,1.5-1.5s1.5,0.672,1.5,1.5v7
				C51.667,86.578,50.995,87.25,50.167,87.25z"/>
		</g>
		<g>
			<path d="M58.667,88.75h-17c-0.828,0-1.5-0.672-1.5-1.5s0.672-1.5,1.5-1.5h17c0.828,0,1.5,0.672,1.5,1.5
				S59.495,88.75,58.667,88.75z"/>
		</g>
	</g>
</g>
<script  type="text/javascript">
    <![CDATA[
         var c=window.location.search.split('color=')[1]; c=parseInt(c,16); if(!isNaN(c)){c=c.toString(16);var p=document.getElementsByTagName('path');for(var i=0,l=p.length;i<l;i++){var s=p[i].style;s.fill='#'+c;} var p2=document.getElementsByTagName('polygon');for(var i=0,l=p2.length;i<l;i++){var s=p2[i].style;s.fill='#'+c;} var p3=document.getElementsByTagName('circle');for(var i=0,l=p3.length;i<l;i++){var s=p3[i].style;s.fill='#'+c;} }
        ]]>
</script>
</svg>
